<?xml version="1.0" encoding="UTF-8"?>
<svg xmlns="http://www.w3.org/2000/svg" xmlns:xlink="http://www.w3.org/1999/xlink" width="249.48pt" height="106.51pt" viewBox="0 0 249.48 106.51" version="1.1">
<defs>
<clipPath id="clip1">
  <path d="M 243 85 L 249.480469 85 L 249.480469 94 L 243 94 Z M 243 85 "/>
</clipPath>
<clipPath id="clip2">
  <path d="M 142 98 L 148 98 L 148 106.511719 L 142 106.511719 Z M 142 98 "/>
</clipPath>
<clipPath id="clip3">
  <path d="M 239 7 L 249.480469 7 L 249.480469 22 L 239 22 Z M 239 7 "/>
</clipPath>
<clipPath id="clip4">
  <path d="M 239 0 L 249.480469 0 L 249.480469 7 L 239 7 Z M 239 0 "/>
</clipPath>
<clipPath id="clip5">
  <path d="M 222 19 L 249.480469 19 L 249.480469 71 L 222 71 Z M 222 19 "/>
</clipPath>
</defs>
<g id="surface1">
<path style=" stroke:none;fill-rule:nonzero;fill:rgb(0%,61.567688%,86.273193%);fill-opacity:1;" d="M 132.148438 32.59375 C 123.539063 32.59375 118.273438 27.785156 118.273438 18.351563 L 118.273438 0.0390625 L 125.328125 0.0390625 L 125.328125 18.167969 C 125.328125 23.386719 127.9375 26.089844 132.238281 26.089844 C 136.546875 26.089844 139.15625 23.480469 139.15625 18.398438 L 139.15625 0.0390625 L 146.207031 0.0390625 L 146.207031 18.125 C 146.207031 27.832031 140.757813 32.59375 132.148438 32.59375 "/>
<path style=" stroke:none;fill-rule:nonzero;fill:rgb(0%,61.567688%,86.273193%);fill-opacity:1;" d="M 173.128906 32.089844 L 157.605469 11.714844 L 157.605469 32.089844 L 150.648438 32.089844 L 150.648438 0.0390625 L 157.148438 0.0390625 L 172.167969 19.773438 L 172.167969 0.0390625 L 179.128906 0.0390625 L 179.128906 32.089844 "/>
<path style=" stroke:none;fill-rule:nonzero;fill:rgb(0%,61.567688%,86.273193%);fill-opacity:1;" d="M 37.683594 70.339844 L 31.546875 70.339844 L 24.3125 49.367188 L 17.078125 70.339844 L 10.945313 70.339844 L 0 38.066406 L 7.554688 38.066406 L 14.195313 59.765625 L 21.382813 37.972656 L 27.425781 37.972656 L 34.617188 59.765625 L 41.253906 38.066406 L 48.628906 38.066406 "/>
<path style=" stroke:none;fill-rule:nonzero;fill:rgb(0%,61.567688%,86.273193%);fill-opacity:1;" d="M 74.132813 54.085938 C 74.132813 48.589844 70.101563 44.015625 64.425781 44.015625 C 58.746094 44.015625 54.808594 48.5 54.808594 53.992188 L 54.808594 54.085938 C 54.808594 59.578125 58.839844 64.15625 64.515625 64.15625 C 70.195313 64.15625 74.132813 59.671875 74.132813 54.175781 Z M 64.425781 70.660156 C 54.535156 70.660156 47.4375 63.289063 47.4375 54.175781 L 47.4375 54.085938 C 47.4375 44.972656 54.628906 37.515625 64.515625 37.515625 C 74.40625 37.515625 81.503906 44.882813 81.503906 53.992188 L 81.503906 54.085938 C 81.503906 63.195313 74.316406 70.660156 64.425781 70.660156 "/>
<path style=" stroke:none;fill-rule:nonzero;fill:rgb(0%,61.567688%,86.273193%);fill-opacity:1;" d="M 109.664063 70.109375 L 109.664063 49.1875 L 100.644531 62.878906 L 100.460938 62.878906 L 91.53125 49.324219 L 91.53125 70.109375 L 84.617188 70.109375 L 84.617188 38.066406 L 92.21875 38.066406 L 100.644531 51.613281 L 109.070313 38.066406 L 116.667969 38.066406 L 116.667969 70.109375 "/>
<path style=" stroke:none;fill-rule:nonzero;fill:rgb(0%,61.567688%,86.273193%);fill-opacity:1;" d="M 122.117188 70.109375 L 122.117188 38.066406 L 146.296875 38.066406 L 146.296875 44.335938 L 129.125 44.335938 L 129.125 50.832031 L 144.234375 50.832031 L 144.234375 57.109375 L 129.125 57.109375 L 129.125 63.839844 L 146.527344 63.839844 L 146.527344 70.109375 "/>
<path style=" stroke:none;fill-rule:nonzero;fill:rgb(0%,61.567688%,86.273193%);fill-opacity:1;" d="M 173.035156 70.109375 L 157.515625 49.734375 L 157.515625 70.109375 L 150.554688 70.109375 L 150.554688 38.066406 L 157.054688 38.066406 L 172.074219 57.792969 L 172.074219 38.066406 L 179.03125 38.066406 L 179.03125 70.109375 "/>
<path style=" stroke:none;fill-rule:nonzero;fill:rgb(0%,61.567688%,86.273193%);fill-opacity:1;" d="M 101.558594 29.28125 C 99.414063 28.304688 96.933594 27.210938 94.425781 28.140625 C 93.160156 27.726563 91.503906 27.726563 90.238281 28.140625 C 88.027344 29.144531 85.019531 30.660156 82.6875 28.980469 C 83.125 29.507813 83.601563 29.757813 84.101563 30.125 C 85.609375 31.097656 87.777344 31 89.332031 30.210938 C 90.765625 29.609375 91.855469 27.8125 93.671875 28.378906 C 92.128906 29.15625 90.714844 30.085938 89.433594 31.414063 L 90.210938 32.078125 C 91.335938 30.585938 92.855469 29.34375 94.488281 28.617188 C 96.066406 29.382813 97.507813 30.699219 98.699219 32.015625 L 99.476563 31.351563 C 98.226563 30.136719 96.769531 29.15625 95.265625 28.378906 C 95.65625 28.277344 96.128906 28.304688 96.53125 28.339844 C 98.160156 29.054688 99.414063 30.484375 101.257813 30.699219 C 103.214844 31.011719 104.960938 30.222656 106.164063 28.792969 L 105.238281 29.28125 C 104.144531 29.773438 102.679688 29.644531 101.558594 29.28125 M 83.503906 23.414063 C 84.46875 24.539063 84.503906 26.03125 85.847656 26.957031 C 86.363281 27.410156 87.050781 27.5 87.628906 27.738281 C 86.988281 27.800781 86.398438 27.539063 85.757813 27.5 C 83.601563 27.238281 81.132813 27.515625 79.550781 25.757813 C 80.269531 27.011719 81.53125 28.105469 82.863281 28.53125 C 85.371094 29.480469 87.644531 28.078125 90.035156 27.863281 C 87.25 27.738281 85.746094 24.703125 83.503906 23.414063 M 105.261719 23.261719 C 103.820313 24.203125 102.578125 25.808594 101.257813 26.835938 C 100.53125 27.386719 99.667969 27.550781 98.816406 27.800781 C 100.695313 27.941406 102.265625 28.832031 104.230469 28.707031 C 106.339844 28.617188 108.269531 27.386719 109.261719 25.519531 C 107.808594 27.25 105.476563 27.148438 103.328125 27.351563 C 102.617188 27.441406 101.910156 27.652344 101.195313 27.652344 C 101.222656 27.628906 101.246094 27.574219 101.285156 27.589844 C 103.628906 27.386719 104.296875 24.84375 105.261719 23.261719 M 94.601563 21.757813 L 94.726563 21.96875 L 94.699219 23.5625 C 95.167969 23.386719 95.804688 23.398438 96.230469 23.324219 C 95.980469 23.074219 95.605469 23.097656 95.503906 22.722656 C 95.328125 22.472656 95.578125 22.210938 95.5625 21.996094 C 95.265625 21.855469 94.816406 22.035156 94.601563 21.757813 M 86.964844 21.308594 L 85.570313 22.746094 C 87.957031 24.878906 90.800781 26.03125 94 26.234375 L 93.910156 26.082031 C 93.933594 25.453125 93.863281 24.789063 93.972656 24.191406 L 93.949219 24.230469 C 91.277344 24.152344 88.84375 23.160156 86.964844 21.308594 M 101.773438 21.179688 C 101.496094 21.558594 101.121094 21.90625 100.722656 22.144531 C 99.414063 22.597656 99.292969 24.050781 98.011719 24.53125 C 97.507813 24.730469 97.222656 24.078125 96.769531 23.976563 C 96.089844 24.089844 95.390625 24.277344 94.699219 24.164063 L 94.699219 26.269531 L 94.789063 26.210938 C 98.023438 26.070313 100.949219 24.789063 103.214844 22.660156 C 102.703125 22.171875 102.148438 21.667969 101.773438 21.179688 M 89.457031 20.0625 C 89.457031 20.277344 89.75 20.289063 89.632813 20.554688 C 89.207031 20.816406 88.695313 20.628906 88.28125 20.941406 C 87.902344 21.144531 87.589844 20.703125 87.375 20.730469 C 89.207031 22.308594 91.351563 23.359375 93.824219 23.476563 L 93.972656 23.5625 C 93.875 22.964844 93.910156 22.261719 93.949219 21.632813 C 92.269531 21.734375 90.75 21.03125 89.457031 20.0625 M 89.246094 19.824219 L 89.394531 20.015625 Z M 80.820313 19.414063 L 81.183594 20.339844 C 81.53125 22.421875 81.699219 24.71875 83.589844 26.03125 L 83.5625 26.058594 C 82.953125 25.796875 82.488281 25.28125 81.933594 24.941406 C 80.15625 23.789063 77.695313 23.277344 76.695313 21.066406 C 76.96875 22.683594 78.074219 24.128906 79.402344 25.132813 C 80.996094 26.535156 83.214844 26.425781 85.160156 26.988281 C 84.441406 26.4375 84.042969 25.808594 83.714844 25.03125 C 83 23.058594 82.371094 21.003906 80.820313 19.414063 M 99.90625 19.351563 L 99.90625 19.375 C 98.964844 20.039063 100.355469 20.0625 100.382813 20.640625 C 100.242188 20.914063 99.742188 21.195313 100.058594 21.519531 C 100.15625 21.632813 100.003906 21.71875 99.96875 21.820313 L 101.257813 20.730469 C 101.097656 20.84375 100.894531 20.769531 100.808594 20.613281 C 100.824219 20.050781 100.144531 19.800781 99.90625 19.351563 M 107.945313 19.199219 L 106.890625 20.578125 C 105.476563 22.535156 105.636719 25.207031 103.667969 26.875 C 104.683594 26.546875 105.800781 26.410156 106.851563 26.183594 C 109.222656 25.582031 111.722656 23.25 112.058594 20.816406 C 111.628906 21.832031 110.742188 22.585938 109.839844 23.175781 C 108.285156 23.902344 106.703125 24.730469 105.386719 25.882813 L 105.238281 25.882813 L 105.324219 25.757813 C 107.59375 24.253906 106.980469 21.34375 107.945313 19.199219 M 90.664063 17.605469 C 90.261719 18.09375 89.785156 18.558594 89.308594 18.960938 L 89.394531 18.960938 C 90.5 19.914063 91.890625 20.578125 93.195313 20.792969 C 92.71875 20.730469 92.53125 20.265625 92.320313 19.914063 C 92.195313 19.625 92.632813 19.5625 92.558594 19.261719 C 92.71875 19 92.96875 18.847656 93.285156 18.8125 C 93.132813 18.835938 92.980469 18.859375 92.832031 18.894531 C 92.042969 18.636719 91.242188 18.28125 90.664063 17.605469 M 97.070313 17.394531 C 96.933594 17.46875 96.820313 17.46875 96.746094 17.632813 C 96.582031 17.847656 96.382813 17.621094 96.230469 17.542969 C 96.28125 17.605469 96.394531 17.757813 96.253906 17.847656 C 96.089844 18.019531 95.941406 17.769531 95.78125 17.71875 C 95.691406 18.269531 95.492188 17.570313 95.203125 17.695313 C 95.078125 17.382813 94.863281 17.757813 94.664063 17.71875 C 94.511719 17.847656 94.5 18.207031 94.210938 18.171875 C 94.148438 18.347656 93.910156 18.28125 93.886719 18.410156 C 94.023438 18.570313 94.210938 18.496094 94.363281 18.46875 C 94.601563 18.257813 94.902344 18.394531 95.175781 18.359375 C 95.152344 18.8125 95.679688 18.46875 95.839844 18.75 C 96.03125 18.738281 96.03125 18.546875 96.105469 18.410156 C 96.496094 18.347656 96.898438 18.109375 97.109375 17.804688 C 97.160156 17.695313 97.234375 17.453125 97.070313 17.394531 M 96.355469 17.09375 C 96.507813 16.890625 96.832031 16.929688 96.898438 16.703125 C 96.617188 16.652344 96.320313 16.851563 96.355469 17.09375 M 92.46875 15.738281 L 91.265625 17.09375 C 91.953125 17.621094 92.757813 18.03125 93.648438 18.171875 C 93.636719 17.933594 93.636719 17.695313 93.757813 17.507813 C 93.886719 17.429688 94.074219 17.542969 94.1875 17.421875 C 94.171875 17.304688 94.101563 17.304688 94.035156 17.203125 C 93.960938 17.03125 94.035156 16.867188 94.058594 16.753906 C 94.109375 16.667969 93.960938 16.46875 94.125 16.402344 C 93.734375 16.589844 93.382813 16.328125 93.042969 16.214844 C 92.855469 16.066406 92.519531 16.027344 92.46875 15.738281 M 100.53125 15.761719 C 100.167969 15.488281 100.242188 16.011719 99.929688 15.976563 C 99.816406 15.949219 99.792969 15.8125 99.78125 15.699219 C 99.753906 15.988281 99.53125 16.199219 99.367188 16.425781 C 98.789063 16.265625 98.941406 17.078125 98.363281 16.902344 C 98.4375 17.132813 98.691406 16.867188 98.816406 16.941406 C 98.914063 16.890625 98.886719 16.789063 98.941406 16.730469 C 99.003906 16.492188 99.292969 16.402344 99.515625 16.492188 C 99.644531 16.691406 99.679688 16.941406 99.667969 17.179688 C 99.53125 17.28125 99.53125 17.445313 99.542969 17.605469 C 99.367188 17.894531 99.441406 18.511719 98.914063 18.445313 C 98.363281 18.246094 97.761719 18.09375 97.160156 18.082031 L 97.160156 18.207031 C 97.5625 18.359375 98.011719 18.359375 98.339844 18.660156 C 98.691406 18.621094 99.128906 18.710938 99.390625 18.511719 C 99.429688 18.257813 99.53125 18.03125 99.691406 17.847656 C 99.917969 17.867188 99.867188 18.171875 99.96875 18.324219 C 100.632813 17.480469 101.210938 16.679688 101.4375 15.648438 C 101.109375 15.628906 100.871094 15.8125 100.53125 15.761719 M 79.617188 15.648438 C 79.765625 16.476563 79.5 17.203125 79.375 17.957031 C 78.949219 19.398438 79.164063 21.09375 80.003906 22.269531 C 79.726563 22.132813 79.550781 21.808594 79.375 21.519531 C 78.335938 19.527344 75.714844 18.394531 75.488281 16.003906 C 75.476563 16.867188 75.476563 17.78125 75.738281 18.558594 C 76.46875 21.246094 79.425781 22.625 81.421875 23.976563 C 80.003906 21.53125 80.757813 18.207031 79.617188 15.648438 M 97.195313 15.613281 C 96.921875 16.003906 97.460938 15.976563 97.496094 16.300781 C 97.5625 16.300781 97.632813 16.328125 97.671875 16.277344 C 97.632813 16.140625 97.648438 15.988281 97.523438 15.886719 C 97.308594 15.886719 97.308594 15.613281 97.195313 15.613281 M 109.144531 15.398438 C 107.953125 17.972656 108.820313 21.382813 107.367188 23.828125 L 107.605469 23.625 C 110.425781 22.082031 113.824219 19.488281 113.257813 15.699219 C 113.210938 16.214844 113.046875 16.679688 112.8125 17.121094 C 111.707031 18.835938 109.824219 20.238281 108.894531 22.019531 C 108.871094 22.082031 108.785156 22.121094 108.746094 22.058594 L 108.933594 21.820313 C 110.265625 19.902344 109.074219 17.542969 109.144531 15.398438 M 91.84375 15.160156 C 91.804688 15.335938 91.664063 15.472656 91.566406 15.613281 C 91.742188 15.535156 91.84375 15.273438 92.042969 15.285156 Z M 89.734375 14.648438 L 89.847656 14.835938 C 89.996094 15.460938 90.375 15.988281 90.6875 16.554688 L 91.265625 15.949219 C 91.25 15.878906 91.289063 15.789063 91.242188 15.738281 C 91.125 15.589844 91.203125 15.308594 91.054688 15.222656 C 91.003906 15.363281 91.164063 15.4375 91.089844 15.550781 C 90.902344 15.472656 90.703125 15.386719 90.601563 15.160156 C 90.640625 14.871094 90.425781 15.085938 90.273438 14.949219 C 90.261719 14.636719 89.871094 14.835938 89.734375 14.648438 M 84.277344 13.84375 L 84.34375 13.933594 C 84.40625 14.835938 84.660156 15.714844 84.730469 16.578125 C 84.84375 16.503906 84.769531 16.300781 84.917969 16.300781 C 84.972656 15.878906 85.03125 15.386719 85.308594 15.007813 C 85.707031 14.996094 85.722656 14.457031 86.148438 14.496094 C 86.246094 14.570313 86.386719 14.671875 86.421875 14.796875 C 86.210938 14.546875 86.199219 14.148438 86.300781 13.84375 C 85.671875 13.933594 84.917969 13.933594 84.277344 13.84375 M 81.632813 13.867188 C 81.769531 17.066406 82.953125 19.863281 85.03125 22.234375 C 85.496094 21.746094 86.011719 21.195313 86.511719 20.792969 C 86.257813 20.628906 86.097656 20.339844 85.847656 20.128906 C 85.535156 20.0625 85.320313 19.765625 85.246094 19.5 C 85.257813 19.535156 85.207031 19.5625 85.179688 19.585938 C 84.894531 19.726563 84.804688 19.375 84.617188 19.261719 C 84.441406 19.175781 84.578125 18.773438 84.277344 18.925781 C 84.101563 18.636719 83.78125 18.660156 83.652344 18.324219 L 83.527344 18.535156 C 83.300781 18.523438 83.140625 18.246094 83.015625 18.109375 C 82.550781 18.246094 82.738281 17.605469 82.472656 17.394531 C 82.371094 16.992188 82.5 16.617188 82.710938 16.300781 C 82.847656 16.175781 83.113281 16.277344 83.164063 16.363281 C 83.40625 16.453125 83.25 16.175781 83.378906 16.125 C 83.714844 15.839844 83.878906 16.242188 84.066406 16.453125 C 83.789063 15.648438 83.617188 14.707031 83.652344 13.84375 C 83.015625 13.933594 82.285156 13.90625 81.632813 13.867188 M 86.902344 13.804688 C 87.039063 14.261719 87.191406 14.746094 87.078125 15.25 C 87.078125 15.023438 87.566406 14.796875 87.175781 14.597656 C 87.328125 14.367188 87.214844 13.894531 87.5 13.867188 C 87.277344 13.917969 87.101563 13.917969 86.902344 13.804688 M 102.527344 13.78125 C 102.601563 14.03125 102.453125 14.269531 102.464844 14.53125 C 102.199219 14.972656 102.800781 15.085938 102.636719 15.496094 C 102.527344 15.589844 102.414063 15.574219 102.273438 15.523438 C 101.964844 16.753906 101.347656 17.882813 100.46875 18.859375 L 100.382813 18.859375 C 100.605469 19 100.769531 19.3125 101.019531 19.375 L 101.019531 19.199219 C 101.070313 19.160156 101.097656 19.074219 101.171875 19.113281 C 101.660156 19.261719 101.699219 19.9375 101.738281 20.253906 C 103.015625 18.910156 103.808594 17.320313 104.203125 15.589844 C 104.347656 15.007813 104.269531 14.308594 104.507813 13.804688 C 103.855469 13.84375 103.140625 13.882813 102.527344 13.78125 M 105.109375 13.742188 L 105.171875 13.867188 C 105.058594 16.515625 103.96875 18.933594 102.273438 20.730469 C 102.75 21.15625 103.289063 21.707031 103.730469 22.171875 C 105.398438 20.253906 106.539063 18.09375 106.941406 15.648438 C 107.078125 15.023438 107.039063 14.34375 107.214844 13.742188 C 106.601563 13.917969 105.875 13.804688 105.199219 13.84375 Z M 100.621094 13.71875 L 100.957031 14.105469 C 100.949219 14.546875 101.546875 14.683594 101.585938 15.136719 C 101.714844 14.722656 101.699219 14.261719 101.824219 13.84375 C 101.4375 13.804688 100.949219 13.933594 100.621094 13.71875 M 100.835938 13.09375 L 100.984375 13.09375 Z M 88.492188 12.84375 C 88.027344 12.992188 88.492188 13.429688 88.46875 13.71875 C 88.417969 13.957031 88.179688 13.769531 88.039063 13.867188 C 88.101563 14.261719 87.777344 14.332031 87.5 14.410156 C 87.414063 14.671875 87.703125 14.796875 87.566406 15.050781 C 87.902344 15.386719 88.164063 15.800781 88.101563 16.277344 C 88.34375 16.617188 88.28125 17.132813 88.34375 17.570313 C 88.542969 17.769531 88.65625 18.070313 88.644531 18.382813 C 88.65625 18.546875 88.480469 18.597656 88.378906 18.660156 C 88.253906 18.8125 88.46875 18.738281 88.46875 18.859375 L 90.148438 17.121094 C 89.558594 16.441406 89.097656 15.535156 88.921875 14.597656 L 88.707031 14.472656 C 88.667969 14.707031 88.683594 15.050781 88.46875 15.136719 C 88.355469 15.035156 88.128906 14.984375 88.128906 14.773438 C 88.191406 14.636719 88.304688 14.722656 88.40625 14.707031 C 88.394531 14.597656 88.417969 14.484375 88.429688 14.382813 C 88.46875 14.246094 88.230469 14.148438 88.40625 14.019531 C 88.554688 14.007813 88.621094 14.183594 88.730469 14.261719 L 89.035156 14.105469 C 88.945313 13.820313 89.105469 13.367188 89.007813 13.054688 C 88.96875 12.804688 88.695313 12.855469 88.492188 12.84375 M 93.847656 11.226563 L 93.886719 11.25 C 93.921875 11.4375 94.058594 11.726563 93.886719 11.851563 C 93.660156 12.152344 93.121094 12.089844 93.042969 12.488281 C 92.457031 12.667969 92.679688 13.390625 92.496094 13.84375 C 92.117188 13.933594 92.253906 13.480469 92.082031 13.328125 L 91.992188 13.441406 C 91.417969 13.003906 91.527344 13.945313 91.179688 14.019531 C 91.578125 14.105469 91.917969 13.882813 92.320313 13.867188 C 92.339844 13.917969 92.445313 13.945313 92.40625 14.019531 L 92.46875 14.019531 C 92.558594 13.933594 92.570313 13.820313 92.558594 13.691406 C 92.59375 13.566406 92.746094 13.492188 92.855469 13.566406 C 92.820313 13.691406 92.90625 13.796875 93.007813 13.84375 L 92.792969 14.148438 C 92.679688 14.269531 92.820313 14.609375 92.53125 14.597656 C 92.46875 14.609375 92.417969 14.558594 92.445313 14.496094 L 92.378906 14.496094 L 92.53125 14.773438 C 92.710938 14.761719 92.667969 14.445313 92.894531 14.410156 C 93.097656 14.359375 93.121094 14.121094 93.097656 13.933594 C 93.359375 13.703125 93.683594 13.84375 93.972656 13.804688 C 94.046875 13.882813 94.222656 13.90625 94.1875 14.046875 C 94.300781 14.269531 94.109375 14.523438 93.972656 14.707031 C 94.035156 14.835938 93.886719 14.933594 93.886719 15.070313 C 93.648438 15.324219 93.382813 15.210938 93.070313 15.285156 C 93.472656 15.558594 93.898438 15.738281 94.425781 15.699219 C 94.925781 15.738281 94.6875 15.097656 95.050781 14.898438 C 95.265625 14.871094 95.453125 14.925781 95.691406 14.859375 C 95.792969 14.671875 95.804688 14.445313 95.839844 14.234375 C 95.628906 14.132813 95.703125 13.917969 95.691406 13.742188 C 95.5625 13.59375 95.578125 13.316406 95.328125 13.292969 C 95.277344 13.152344 95.425781 13.09375 95.414063 12.96875 C 95.792969 12.828125 95.214844 12.601563 95.453125 12.390625 C 95.027344 12.316406 94.925781 11.636719 94.402344 11.851563 C 94.277344 11.675781 93.949219 11.597656 93.949219 11.335938 C 93.984375 11.148438 94.414063 11.226563 94.363281 11.25 C 94.335938 11.210938 94.289063 11.183594 94.300781 11.136719 C 94.140625 11.121094 93.949219 11.136719 93.847656 11.226563 M 75.976563 10.433594 C 75.328125 11.9375 75.363281 13.933594 75.851563 15.496094 C 76.277344 17.121094 77.820313 18.246094 78.625 19.648438 C 78.484375 19.0625 78.511719 18.324219 78.597656 17.71875 C 79.125 15.628906 79.953125 13.605469 79.828125 11.285156 C 79.515625 12.953125 78.023438 14.132813 77.847656 15.851563 C 77.734375 16.554688 77.910156 17.242188 77.996094 17.867188 C 77.835938 17.554688 77.683594 17.195313 77.660156 16.789063 C 77.40625 14.53125 75.589844 12.878906 75.976563 10.433594 M 112.722656 10.171875 C 113.070313 12.203125 111.84375 13.734375 111.339844 15.496094 C 111.066406 16.175781 111.179688 17.042969 110.769531 17.632813 C 110.742188 17.292969 110.929688 16.96875 110.953125 16.601563 C 111.265625 14.332031 109.296875 12.992188 108.847656 11.074219 C 108.820313 11.585938 108.855469 12.074219 108.933594 12.539063 C 109.046875 14.933594 110.617188 16.878906 110.164063 19.375 C 110.617188 18.78125 110.953125 18.183594 111.492188 17.605469 C 113.300781 15.726563 113.765625 12.578125 112.722656 10.171875 M 93.886719 8.730469 C 92.832031 8.878906 91.84375 9.269531 91.089844 10.082031 C 91.335938 10.132813 91.589844 10.230469 91.777344 10.40625 C 91.84375 10.53125 91.664063 10.546875 91.652344 10.621094 C 91.816406 10.859375 91.828125 10.570313 91.992188 10.53125 C 92.144531 10.6875 92.28125 10.796875 92.496094 10.6875 C 92.605469 10.871094 92.78125 10.695313 92.917969 10.710938 C 92.96875 10.558594 93.183594 10.433594 93.097656 10.257813 C 93.171875 10.121094 93.207031 9.894531 93.398438 9.894531 C 93.285156 10.484375 93.835938 9.894531 94 10.171875 C 93.835938 9.742188 93.960938 9.15625 93.886719 8.730469 M 94.699219 8.691406 L 94.75 10.046875 L 95.265625 10.230469 C 95.414063 9.96875 95.691406 9.90625 95.867188 9.679688 C 96.03125 9.605469 96.03125 9.808594 96.105469 9.871094 C 96.207031 10.484375 95.527344 10.757813 95.152344 11.011719 L 95.304688 11.011719 C 95.691406 10.609375 95.917969 11.511719 96.320313 11.097656 C 96.394531 10.582031 97.121094 10.644531 97.285156 10.132813 C 97.160156 10.257813 97.097656 10.121094 96.984375 10.082031 C 97.019531 9.90625 97.257813 9.796875 97.371094 9.679688 C 96.558594 9.175781 95.667969 8.839844 94.699219 8.691406 M 88.878906 8.449219 C 88.457031 8.980469 88.039063 9.554688 87.742188 10.171875 C 87.25 11.074219 87.113281 12.113281 86.925781 13.140625 L 87.742188 13.117188 C 87.601563 12.953125 87.628906 12.726563 87.628906 12.515625 C 87.816406 12.113281 87.894531 11.398438 88.492188 11.4375 C 88.78125 11.375 88.480469 11.148438 88.707031 11.035156 C 89.132813 10.972656 89.246094 10.570313 89.609375 10.382813 C 89.949219 10.34375 90.023438 9.871094 90.363281 9.832031 C 89.785156 9.433594 89.394531 8.929688 88.878906 8.449219 M 99.78125 8.390625 C 99.203125 9.066406 98.449219 9.78125 97.886719 10.433594 C 97.925781 10.519531 98.023438 10.621094 98.039063 10.582031 C 98.1875 10.394531 98.074219 9.917969 98.488281 10.019531 C 98.902344 10.15625 99.265625 10.121094 99.71875 10.171875 C 99.96875 10.308594 100.003906 10.609375 100.230469 10.734375 C 100.335938 10.847656 100.195313 10.949219 100.144531 11.035156 C 100.195313 11.085938 100.242188 11.136719 100.269531 11.183594 C 100.394531 11.074219 100.570313 10.921875 100.808594 10.984375 C 101.046875 11 101.109375 11.335938 101.324219 11.375 C 101.421875 11.5 101.257813 11.625 101.171875 11.675781 C 101.222656 11.914063 100.949219 11.988281 101.046875 12.214844 C 101.171875 12.238281 101.296875 12.175781 101.347656 12.089844 C 101.824219 11.738281 101.449219 11.285156 101.371094 10.859375 C 101.183594 10.46875 100.78125 10.394531 100.46875 10.105469 C 100.484375 9.980469 100.558594 9.84375 100.65625 9.78125 C 100.644531 9.230469 100.082031 8.851563 99.78125 8.390625 M 86.964844 6.523438 L 86.964844 6.648438 C 85.371094 8.464844 84.480469 10.65625 84.320313 13.117188 C 84.972656 13.132813 85.683594 13.09375 86.300781 13.140625 L 86.238281 13.054688 C 86.363281 11.113281 87.050781 9.339844 88.378906 7.941406 C 87.851563 7.511719 87.367188 7.023438 86.964844 6.523438 M 94.664063 6.046875 C 94.765625 6.632813 94.738281 7.324219 94.699219 7.941406 C 95.867188 8.027344 97.109375 8.503906 97.949219 9.269531 C 98.386719 8.816406 98.875 8.214844 99.367188 7.941406 C 97.988281 6.847656 96.441406 6.167969 94.664063 6.046875 M 93.949219 6.019531 L 93.886719 6.070313 C 92.152344 6.167969 90.714844 6.9375 89.371094 7.976563 C 89.886719 8.316406 90.296875 8.839844 90.789063 9.292969 C 91.628906 8.488281 92.746094 8.011719 93.910156 7.976563 C 93.875 7.398438 93.847656 6.632813 93.949219 6.019531 M 77.898438 5.566406 C 77.171875 6.433594 76.679688 7.472656 76.425781 8.574219 C 75.941406 10.886719 77.332031 12.667969 77.632813 14.773438 C 78.035156 12.128906 80.820313 10.460938 80.96875 7.699219 C 80.15625 9.191406 78.171875 10.058594 77.808594 11.824219 C 77.808594 12.113281 77.722656 12.390625 77.660156 12.667969 L 77.597656 12.601563 L 77.695313 11.464844 C 78.035156 9.417969 76.84375 7.3125 77.898438 5.566406 M 110.617188 5.289063 C 111.539063 6.648438 111.015625 8.550781 110.953125 10.132813 C 110.988281 10.898438 111.117188 11.660156 111.066406 12.425781 C 110.953125 12.128906 110.929688 11.800781 110.855469 11.488281 C 110.480469 9.769531 108.457031 8.929688 107.640625 7.484375 C 107.769531 7.976563 107.855469 8.464844 108.03125 8.929688 C 108.734375 10.960938 110.839844 12.328125 111.128906 14.53125 C 111.316406 12.425781 112.796875 10.746094 112.246094 8.449219 C 111.960938 7.300781 111.480469 6.167969 110.617188 5.289063 M 85.179688 4.816406 L 85.121094 4.628906 C 82.972656 6.960938 81.769531 9.90625 81.605469 13.117188 L 83.652344 13.140625 C 83.578125 12.488281 83.753906 11.859375 83.828125 11.226563 C 84.265625 9.328125 85.082031 7.539063 86.535156 6.132813 Z M 103.539063 4.601563 L 102.226563 6.019531 L 102.011719 6.046875 C 102.1875 6.046875 102.136719 6.246094 102.25 6.320313 C 102.800781 6.707031 103.050781 7.261719 103.519531 7.675781 C 103.691406 8.101563 104.144531 8.378906 104.144531 8.902344 C 104.796875 10.171875 105.097656 11.660156 105.171875 13.117188 C 105.824219 13.039063 106.5625 13.015625 107.191406 13.027344 L 107.128906 12.96875 C 107.003906 9.707031 105.671875 6.921875 103.539063 4.601563 M 87.476563 6.109375 C 87.980469 6.460938 88.46875 7.007813 88.878906 7.460938 C 90.210938 6.167969 91.992188 5.378906 93.910156 5.355469 C 93.875 4.726563 93.875 4.050781 93.910156 3.421875 C 91.476563 3.609375 89.296875 4.488281 87.476563 6.109375 M 100.382813 3.359375 C 100.28125 3.386719 100.320313 3.546875 100.355469 3.609375 C 100.683594 3.636719 100.683594 4.1875 101.070313 3.960938 L 100.984375 3.574219 C 100.886719 3.320313 100.546875 3.449219 100.382813 3.359375 M 94.640625 3.359375 C 94.738281 3.988281 94.699219 4.738281 94.664063 5.355469 C 96.253906 5.378906 97.761719 5.871094 99.003906 6.796875 C 98.886719 6.734375 98.738281 6.484375 98.761719 6.320313 L 98.816406 6.320313 C 98.839844 6.09375 98.5 5.996094 98.613281 5.769531 C 98.914063 5.792969 99.140625 6.207031 99.300781 6.433594 C 100.167969 6.421875 99.667969 7.445313 100.320313 7.761719 C 100.46875 7.839844 100.269531 8.152344 100.507813 8.125 C 100.710938 8.289063 100.957031 8.464844 100.921875 8.730469 C 100.996094 9.175781 101.355469 8.589844 101.558594 8.878906 C 101.738281 9.019531 101.4375 9.105469 101.472656 9.269531 C 101.585938 9.316406 101.6875 9.15625 101.773438 9.292969 C 101.8125 9.445313 101.699219 9.507813 101.621094 9.59375 C 101.546875 9.855469 101.859375 9.707031 101.949219 9.832031 C 102.089844 10.132813 102.199219 10.582031 101.976563 10.921875 C 102.289063 11.261719 101.925781 11.613281 101.859375 11.9375 C 101.636719 12.152344 101.597656 12.65625 101.171875 12.539063 C 101.070313 12.714844 101.234375 12.917969 101.132813 13.054688 L 101.886719 13.09375 C 101.460938 12.488281 102.011719 11.914063 102.1875 11.375 C 102.273438 11.335938 102.390625 11.148438 102.464844 11.335938 C 102.425781 11.585938 102.402344 11.859375 102.375 12.066406 C 102.5625 12.351563 102.488281 12.753906 102.554688 13.09375 L 104.480469 13.054688 C 104.347656 11.777344 104.078125 10.546875 103.539063 9.445313 C 103.402344 9.492188 103.242188 9.59375 103.089844 9.507813 C 102.878906 9.214844 102.703125 8.867188 102.402344 8.628906 C 102.148438 8.628906 101.976563 8.425781 101.773438 8.300781 C 101.335938 8.316406 101.496094 7.675781 101.070313 7.761719 C 100.84375 7.648438 100.683594 7.539063 100.621094 7.273438 C 100.605469 6.972656 100.578125 6.597656 100.289063 6.371094 C 100.132813 6.28125 99.980469 6.394531 99.867188 6.496094 C 99.628906 6.648438 99.53125 6.382813 99.542969 6.191406 C 99.277344 5.996094 99.554688 5.769531 99.414063 5.53125 C 99.039063 5.230469 99.214844 4.664063 98.699219 4.414063 C 97.875 4.015625 96.996094 3.761719 96.078125 3.574219 C 95.605469 3.5 95.089844 3.484375 94.640625 3.359375 M 78.625 4.839844 C 77.609375 6.332031 78.433594 8.402344 78.144531 10.171875 C 78.511719 9.445313 79.214844 8.753906 79.828125 8.238281 C 81.246094 7.324219 82.515625 5.871094 82.5625 4.238281 C 81.808594 6.167969 79.324219 6.421875 78.710938 8.476563 L 78.648438 8.476563 C 79.566406 6.769531 79.050781 4.363281 80.792969 3.097656 C 79.878906 3.359375 79.101563 4.039063 78.625 4.839844 M 107.730469 2.859375 C 109.0625 3.738281 108.972656 5.355469 109.449219 6.671875 C 109.574219 7.222656 109.914063 7.722656 109.949219 8.277344 C 109.234375 6.207031 106.828125 5.980469 105.949219 4.027344 L 106.226563 5.167969 C 106.902344 7.386719 109.546875 7.925781 110.550781 9.933594 C 110.238281 8.476563 110.789063 6.960938 110.351563 5.53125 C 109.988281 4.300781 108.972656 3.222656 107.730469 2.859375 M 96.207031 1.703125 L 95.304688 2.105469 C 95.203125 2.15625 94.890625 1.992188 94.941406 2.257813 C 95.113281 2.371094 95.292969 2.496094 95.503906 2.519531 C 96.066406 2.269531 96.746094 2.683594 97.222656 2.15625 C 97.085938 1.78125 96.582031 1.769531 96.207031 1.703125 M 84.429688 1.289063 C 83.238281 1.769531 81.949219 2.15625 81.054688 3.273438 C 80.367188 4.175781 80.15625 5.253906 79.804688 6.28125 L 80.855469 5.378906 C 82.460938 4.261719 82.875 2.445313 84.429688 1.289063 M 104.078125 1.105469 L 105.046875 2.070313 C 106.023438 3.574219 107.394531 5.0625 108.746094 6.019531 C 108.457031 5.414063 108.394531 4.714844 108.09375 4.109375 C 107.492188 2.433594 105.621094 1.617188 104.078125 1.105469 M 85.570313 4.175781 L 87.050781 5.59375 C 88.90625 3.789063 91.289063 2.757813 93.910156 2.667969 C 93.8125 2.042969 93.847656 1.328125 93.886719 0.691406 C 90.703125 0.867188 87.929688 2.070313 85.570313 4.175781 M 94.664063 0.625 C 94.710938 1.128906 94.710938 1.832031 94.664063 2.410156 C 94.675781 2.320313 94.765625 2.320313 94.816406 2.28125 C 94.988281 2.347656 94.988281 2.558594 94.941406 2.710938 L 94.902344 2.710938 C 95.804688 2.644531 96.671875 2.871094 97.496094 3.121094 C 98.363281 3.234375 99.117188 4.277344 99.96875 3.722656 C 100.207031 3.988281 100.621094 3.738281 100.746094 4.148438 C 101.070313 4.214844 101.246094 4.539063 101.472656 4.75 C 101.449219 5.054688 101.722656 5.191406 101.824219 5.414063 L 101.824219 5.378906 C 102.113281 4.863281 102.5625 4.414063 103.066406 4.148438 C 101.269531 2.445313 99.078125 1.34375 96.679688 0.902344 C 96.03125 0.765625 95.304688 0.800781 94.664063 0.625 M 106.1875 7.097656 C 108.734375 11.296875 108.207031 17.695313 105.132813 21.480469 C 101.738281 25.972656 96.128906 27.914063 90.601563 26.386719 C 85.570313 25.070313 81.472656 20.265625 81.007813 15.070313 C 80.378906 9.570313 82.9375 4.550781 87.589844 1.808594 C 91.179688 -0.402344 96.707031 -0.652344 100.445313 1.441406 C 102.714844 2.546875 104.996094 4.804688 106.1875 7.097656 "/>
<path style=" stroke:none;fill-rule:nonzero;fill:rgb(41.175842%,36.862183%,29.019165%);fill-opacity:1;" d="M 55.175781 90.726563 C 52.84375 90.726563 52.347656 89.449219 52.347656 88.085938 L 52.347656 83.1875 L 53.546875 83.1875 L 53.546875 87.996094 C 53.546875 88.988281 53.878906 89.734375 55.253906 89.734375 C 56.464844 89.734375 57.011719 89.230469 57.011719 87.84375 L 57.011719 83.1875 L 58.191406 83.1875 L 58.191406 87.753906 C 58.191406 89.734375 57.121094 90.726563 55.175781 90.726563 "/>
<path style=" stroke:none;fill-rule:nonzero;fill:rgb(41.175842%,36.862183%,29.019165%);fill-opacity:1;" d="M 63.332031 90.617188 L 63.332031 87.09375 C 63.332031 86.414063 63.144531 86.015625 62.515625 86.015625 C 61.691406 86.015625 61.085938 86.886719 61.085938 87.976563 L 61.085938 90.617188 L 59.910156 90.617188 L 59.910156 85.148438 L 61.03125 85.148438 C 61.03125 85.433594 61.007813 85.90625 60.953125 86.214844 L 60.964844 86.226563 C 61.285156 85.519531 61.945313 85.039063 62.867188 85.039063 C 64.113281 85.039063 64.496094 85.820313 64.496094 86.789063 L 64.496094 90.617188 "/>
<path style=" stroke:none;fill-rule:nonzero;fill:rgb(41.175842%,36.862183%,29.019165%);fill-opacity:1;" d="M 66.214844 85.148438 L 67.394531 85.148438 L 67.394531 90.617188 L 66.214844 90.617188 Z M 66.808594 84.332031 C 66.390625 84.332031 66.050781 84 66.050781 83.597656 C 66.050781 83.1875 66.390625 82.859375 66.808594 82.859375 C 67.21875 82.859375 67.558594 83.179688 67.558594 83.597656 C 67.558594 84 67.21875 84.332031 66.808594 84.332031 "/>
<path style=" stroke:none;fill-rule:nonzero;fill:rgb(41.175842%,36.862183%,29.019165%);fill-opacity:1;" d="M 70.859375 90.714844 C 69.695313 90.714844 69.339844 90.265625 69.339844 89.042969 L 69.339844 86.0625 L 68.296875 86.0625 L 68.296875 85.148438 L 69.339844 85.148438 L 69.339844 83.40625 L 70.507813 83.089844 L 70.507813 85.148438 L 71.949219 85.148438 L 71.949219 86.0625 L 70.519531 86.0625 L 70.519531 88.679688 C 70.519531 89.492188 70.683594 89.714844 71.234375 89.714844 C 71.476563 89.714844 71.738281 89.679688 71.949219 89.625 L 71.949219 90.59375 C 71.632813 90.660156 71.222656 90.714844 70.859375 90.714844 "/>
<path style=" stroke:none;fill-rule:nonzero;fill:rgb(41.175842%,36.862183%,29.019165%);fill-opacity:1;" d="M 75.230469 85.90625 C 74.570313 85.90625 74.105469 86.390625 74.007813 87.128906 L 76.332031 87.128906 C 76.351563 86.378906 75.921875 85.90625 75.230469 85.90625 M 77.472656 87.953125 L 73.984375 87.953125 C 73.953125 89.21875 74.515625 89.792969 75.601563 89.792969 C 76.164063 89.792969 76.75 89.660156 77.199219 89.4375 L 77.308594 90.375 C 76.757813 90.605469 76.085938 90.726563 75.417969 90.726563 C 73.710938 90.726563 72.777344 89.84375 72.777344 87.921875 C 72.777344 86.269531 73.675781 85.039063 75.273438 85.039063 C 76.835938 85.039063 77.507813 86.105469 77.507813 87.402344 C 77.507813 87.554688 77.496094 87.746094 77.472656 87.953125 "/>
<path style=" stroke:none;fill-rule:nonzero;fill:rgb(41.175842%,36.862183%,29.019165%);fill-opacity:1;" d="M 82.085938 86.09375 C 81.789063 86.027344 81.503906 85.996094 81.21875 85.996094 C 80.28125 85.996094 79.644531 86.566406 79.644531 88.039063 C 79.644531 89.144531 79.984375 89.757813 80.734375 89.757813 C 81.601563 89.757813 82.085938 88.726563 82.085938 87.789063 Z M 82.140625 90.617188 C 82.140625 90.328125 82.164063 89.902344 82.21875 89.59375 L 82.195313 89.59375 C 81.898438 90.265625 81.261719 90.726563 80.414063 90.726563 C 79.070313 90.726563 78.398438 89.734375 78.398438 88.152344 C 78.398438 86.269531 79.488281 85.058594 81.261719 85.058594 C 81.523438 85.058594 81.789063 85.082031 82.085938 85.105469 L 82.085938 82.582031 L 83.253906 82.582031 L 83.253906 90.617188 "/>
<path style=" stroke:none;fill-rule:nonzero;fill:rgb(41.175842%,36.862183%,29.019165%);fill-opacity:1;" d="M 91.839844 90.617188 L 89.296875 86.390625 C 88.964844 85.851563 88.703125 85.324219 88.46875 84.828125 C 88.515625 85.554688 88.535156 87.0625 88.535156 88.117188 L 88.535156 90.617188 L 87.371094 90.617188 L 87.371094 83.1875 L 88.945313 83.1875 L 91.398438 87.238281 C 91.726563 87.789063 92.027344 88.382813 92.300781 88.921875 C 92.257813 88.074219 92.222656 86.476563 92.222656 85.386719 L 92.222656 83.1875 L 93.390625 83.1875 L 93.390625 90.617188 "/>
<path style=" stroke:none;fill-rule:nonzero;fill:rgb(41.175842%,36.862183%,29.019165%);fill-opacity:1;" d="M 97.957031 88.140625 C 96.242188 88.140625 95.867188 88.660156 95.867188 89.132813 C 95.867188 89.535156 96.152344 89.800781 96.617188 89.800781 C 97.417969 89.800781 97.957031 89.03125 97.957031 88.25 Z M 98.035156 90.617188 C 98.035156 90.265625 98.046875 89.902344 98.089844 89.605469 L 98.078125 89.59375 C 97.816406 90.242188 97.132813 90.726563 96.261719 90.726563 C 95.328125 90.726563 94.734375 90.199219 94.734375 89.328125 C 94.734375 88.074219 95.988281 87.347656 97.957031 87.347656 L 97.957031 86.996094 C 97.957031 86.316406 97.671875 85.960938 96.8125 85.960938 C 96.308594 85.960938 95.648438 86.117188 95.183594 86.402344 L 95.074219 85.402344 C 95.613281 85.191406 96.296875 85.035156 97 85.035156 C 98.671875 85.035156 99.136719 85.765625 99.136719 86.886719 L 99.136719 89.121094 C 99.136719 89.59375 99.148438 90.15625 99.167969 90.617188 "/>
<path style=" stroke:none;fill-rule:nonzero;fill:rgb(41.175842%,36.862183%,29.019165%);fill-opacity:1;" d="M 102.503906 90.714844 C 101.339844 90.714844 100.984375 90.265625 100.984375 89.042969 L 100.984375 86.0625 L 99.941406 86.0625 L 99.941406 85.148438 L 100.984375 85.148438 L 100.984375 83.40625 L 102.152344 83.089844 L 102.152344 85.148438 L 103.59375 85.148438 L 103.59375 86.0625 L 102.164063 86.0625 L 102.164063 88.679688 C 102.164063 89.492188 102.328125 89.714844 102.878906 89.714844 C 103.121094 89.714844 103.382813 89.679688 103.59375 89.625 L 103.59375 90.59375 C 103.273438 90.660156 102.867188 90.714844 102.503906 90.714844 "/>
<path style=" stroke:none;fill-rule:nonzero;fill:rgb(41.175842%,36.862183%,29.019165%);fill-opacity:1;" d="M 104.859375 85.148438 L 106.039063 85.148438 L 106.039063 90.617188 L 104.859375 90.617188 Z M 105.453125 84.332031 C 105.035156 84.332031 104.695313 84 104.695313 83.597656 C 104.695313 83.1875 105.035156 82.859375 105.453125 82.859375 C 105.863281 82.859375 106.203125 83.179688 106.203125 83.597656 C 106.203125 84 105.863281 84.332031 105.453125 84.332031 "/>
<path style=" stroke:none;fill-rule:nonzero;fill:rgb(41.175842%,36.862183%,29.019165%);fill-opacity:1;" d="M 109.921875 86.027344 C 109.207031 86.027344 108.515625 86.578125 108.515625 87.832031 C 108.515625 89.066406 108.996094 89.714844 109.910156 89.714844 C 110.671875 89.714844 111.308594 89.121094 111.308594 87.855469 C 111.308594 86.6875 110.859375 86.027344 109.921875 86.027344 M 109.800781 90.726563 C 108.28125 90.726563 107.292969 89.878906 107.292969 87.953125 C 107.292969 86.300781 108.359375 85.039063 110.023438 85.039063 C 111.484375 85.039063 112.519531 85.851563 112.519531 87.777344 C 112.519531 89.460938 111.421875 90.726563 109.800781 90.726563 "/>
<path style=" stroke:none;fill-rule:nonzero;fill:rgb(41.175842%,36.862183%,29.019165%);fill-opacity:1;" d="M 117.21875 90.617188 L 117.21875 87.09375 C 117.21875 86.414063 117.03125 86.015625 116.40625 86.015625 C 115.578125 86.015625 114.976563 86.886719 114.976563 87.976563 L 114.976563 90.617188 L 113.796875 90.617188 L 113.796875 85.148438 L 114.921875 85.148438 C 114.921875 85.433594 114.898438 85.90625 114.84375 86.214844 L 114.855469 86.226563 C 115.171875 85.519531 115.835938 85.039063 116.757813 85.039063 C 118.003906 85.039063 118.386719 85.820313 118.386719 86.789063 L 118.386719 90.617188 "/>
<path style=" stroke:none;fill-rule:nonzero;fill:rgb(41.175842%,36.862183%,29.019165%);fill-opacity:1;" d="M 121.007813 90.726563 C 120.601563 90.726563 120.195313 90.683594 119.851563 90.617188 L 119.886719 89.617188 C 120.226563 89.710938 120.65625 89.789063 121.074219 89.789063 C 121.714844 89.789063 122.152344 89.515625 122.152344 89.066406 C 122.152344 87.964844 119.753906 88.625 119.753906 86.734375 C 119.753906 85.785156 120.523438 85.039063 122.007813 85.039063 C 122.328125 85.039063 122.703125 85.082031 123.03125 85.136719 L 123 86.09375 C 122.671875 85.996094 122.285156 85.941406 121.933594 85.941406 C 121.28125 85.941406 120.964844 86.203125 120.964844 86.621094 C 120.964844 87.679688 123.382813 87.140625 123.382813 88.953125 C 123.382813 89.980469 122.472656 90.726563 121.007813 90.726563 "/>
<path style=" stroke:none;fill-rule:nonzero;fill:rgb(41.175842%,36.862183%,29.019165%);fill-opacity:1;" d="M 127.136719 90.617188 L 127.136719 83.1875 L 131.054688 83.1875 L 131.054688 84.1875 L 128.339844 84.1875 L 128.339844 86.304688 L 130.925781 86.304688 L 130.925781 87.28125 L 128.339844 87.28125 L 128.339844 89.59375 L 131.054688 89.59375 L 131.054688 90.617188 "/>
<path style=" stroke:none;fill-rule:nonzero;fill:rgb(41.175842%,36.862183%,29.019165%);fill-opacity:1;" d="M 136.042969 90.617188 L 136.042969 87.09375 C 136.042969 86.414063 135.855469 86.015625 135.226563 86.015625 C 134.402344 86.015625 133.796875 86.886719 133.796875 87.976563 L 133.796875 90.617188 L 132.617188 90.617188 L 132.617188 85.148438 L 133.742188 85.148438 C 133.742188 85.433594 133.71875 85.90625 133.664063 86.214844 L 133.675781 86.226563 C 133.996094 85.519531 134.65625 85.039063 135.578125 85.039063 C 136.824219 85.039063 137.207031 85.820313 137.207031 86.789063 L 137.207031 90.617188 "/>
<path style=" stroke:none;fill-rule:nonzero;fill:rgb(41.175842%,36.862183%,29.019165%);fill-opacity:1;" d="M 140.585938 90.714844 C 139.421875 90.714844 139.070313 90.265625 139.070313 89.042969 L 139.070313 86.0625 L 138.023438 86.0625 L 138.023438 85.148438 L 139.070313 85.148438 L 139.070313 83.40625 L 140.234375 83.089844 L 140.234375 85.148438 L 141.675781 85.148438 L 141.675781 86.0625 L 140.246094 86.0625 L 140.246094 88.679688 C 140.246094 89.492188 140.410156 89.714844 140.960938 89.714844 C 141.203125 89.714844 141.46875 89.679688 141.675781 89.625 L 141.675781 90.59375 C 141.359375 90.660156 140.949219 90.714844 140.585938 90.714844 "/>
<path style=" stroke:none;fill-rule:nonzero;fill:rgb(41.175842%,36.862183%,29.019165%);fill-opacity:1;" d="M 142.941406 85.148438 L 144.121094 85.148438 L 144.121094 90.617188 L 142.941406 90.617188 Z M 143.539063 84.332031 C 143.121094 84.332031 142.777344 84 142.777344 83.597656 C 142.777344 83.1875 143.121094 82.859375 143.539063 82.859375 C 143.945313 82.859375 144.285156 83.179688 144.285156 83.597656 C 144.285156 84 143.945313 84.332031 143.539063 84.332031 "/>
<path style=" stroke:none;fill-rule:nonzero;fill:rgb(41.175842%,36.862183%,29.019165%);fill-opacity:1;" d="M 147.589844 90.714844 C 146.421875 90.714844 146.070313 90.265625 146.070313 89.042969 L 146.070313 86.0625 L 145.023438 86.0625 L 145.023438 85.148438 L 146.070313 85.148438 L 146.070313 83.40625 L 147.234375 83.089844 L 147.234375 85.148438 L 148.675781 85.148438 L 148.675781 86.0625 L 147.246094 86.0625 L 147.246094 88.679688 C 147.246094 89.492188 147.410156 89.714844 147.960938 89.714844 C 148.203125 89.714844 148.46875 89.679688 148.675781 89.625 L 148.675781 90.59375 C 148.359375 90.660156 147.949219 90.714844 147.589844 90.714844 "/>
<path style=" stroke:none;fill-rule:nonzero;fill:rgb(41.175842%,36.862183%,29.019165%);fill-opacity:1;" d="M 152.144531 91.144531 C 151.503906 92.851563 150.964844 93.378906 149.734375 93.378906 C 149.515625 93.378906 149.21875 93.347656 148.996094 93.300781 L 149.085938 92.269531 C 149.328125 92.355469 149.546875 92.386719 149.800781 92.386719 C 150.351563 92.386719 150.660156 92.132813 151 91.199219 L 151.21875 90.617188 L 149.171875 85.148438 L 150.496094 85.148438 L 151.386719 87.644531 C 151.5625 88.128906 151.691406 88.613281 151.8125 89.074219 L 151.824219 89.074219 C 151.9375 88.636719 152.164063 87.933594 152.363281 87.371094 L 153.144531 85.148438 L 154.410156 85.148438 "/>
<path style=" stroke:none;fill-rule:nonzero;fill:rgb(41.175842%,36.862183%,29.019165%);fill-opacity:1;" d="M 160.949219 83.574219 C 160.707031 83.496094 160.441406 83.464844 160.199219 83.464844 C 159.496094 83.464844 159.179688 83.847656 159.179688 84.707031 L 159.179688 85.148438 L 160.597656 85.148438 L 160.597656 86.058594 L 159.179688 86.058594 L 159.179688 90.617188 L 158.011719 90.617188 L 158.011719 86.058594 L 156.964844 86.058594 L 156.964844 85.148438 L 158.011719 85.148438 L 158.011719 84.726563 C 158.011719 83.234375 158.726563 82.507813 160.144531 82.507813 C 160.453125 82.507813 160.75 82.539063 161.039063 82.605469 "/>
<path style=" stroke:none;fill-rule:nonzero;fill:rgb(41.175842%,36.862183%,29.019165%);fill-opacity:1;" d="M 163.589844 86.027344 C 162.875 86.027344 162.183594 86.578125 162.183594 87.832031 C 162.183594 89.066406 162.664063 89.714844 163.578125 89.714844 C 164.339844 89.714844 164.976563 89.121094 164.976563 87.855469 C 164.976563 86.6875 164.527344 86.027344 163.589844 86.027344 M 163.46875 90.726563 C 161.949219 90.726563 160.960938 89.878906 160.960938 87.953125 C 160.960938 86.300781 162.027344 85.039063 163.691406 85.039063 C 165.152344 85.039063 166.1875 85.851563 166.1875 87.777344 C 166.1875 89.460938 165.085938 90.726563 163.46875 90.726563 "/>
<path style=" stroke:none;fill-rule:nonzero;fill:rgb(41.175842%,36.862183%,29.019165%);fill-opacity:1;" d="M 170.261719 86.191406 C 169.171875 85.996094 168.644531 86.753906 168.644531 88.394531 L 168.644531 90.617188 L 167.464844 90.617188 L 167.464844 85.148438 L 168.589844 85.148438 C 168.589844 85.457031 168.554688 85.941406 168.476563 86.359375 L 168.5 86.359375 C 168.742188 85.621094 169.292969 84.9375 170.316406 85.039063 "/>
<path style=" stroke:none;fill-rule:nonzero;fill:rgb(41.175842%,36.862183%,29.019165%);fill-opacity:1;" d="M 179.316406 84.519531 C 178.703125 84.277344 178.019531 84.132813 177.339844 84.132813 C 175.839844 84.132813 174.640625 85.105469 174.640625 86.941406 C 174.640625 88.660156 175.621094 89.660156 177.214844 89.660156 C 177.644531 89.660156 178.019531 89.59375 178.359375 89.484375 L 178.359375 86.789063 L 179.5625 86.789063 L 179.5625 90.277344 C 178.824219 90.5625 177.921875 90.726563 177.074219 90.726563 C 174.773438 90.726563 173.355469 89.351563 173.355469 87.0625 C 173.355469 84.761719 174.894531 83.089844 177.4375 83.089844 C 178.152344 83.089844 178.855469 83.199219 179.507813 83.410156 "/>
<path style=" stroke:none;fill-rule:nonzero;fill:rgb(41.175842%,36.862183%,29.019165%);fill-opacity:1;" d="M 183.257813 85.90625 C 182.601563 85.90625 182.136719 86.390625 182.039063 87.128906 L 184.359375 87.128906 C 184.382813 86.378906 183.953125 85.90625 183.257813 85.90625 M 185.503906 87.953125 L 182.015625 87.953125 C 181.984375 89.21875 182.542969 89.792969 183.632813 89.792969 C 184.195313 89.792969 184.777344 89.660156 185.230469 89.4375 L 185.339844 90.375 C 184.789063 90.605469 184.117188 90.726563 183.445313 90.726563 C 181.742188 90.726563 180.804688 89.84375 180.804688 87.921875 C 180.804688 86.269531 181.707031 85.039063 183.304688 85.039063 C 184.867188 85.039063 185.539063 86.105469 185.539063 87.402344 C 185.539063 87.554688 185.527344 87.746094 185.503906 87.953125 "/>
<path style=" stroke:none;fill-rule:nonzero;fill:rgb(41.175842%,36.862183%,29.019165%);fill-opacity:1;" d="M 190.292969 90.617188 L 190.292969 87.09375 C 190.292969 86.414063 190.105469 86.015625 189.480469 86.015625 C 188.652344 86.015625 188.046875 86.886719 188.046875 87.976563 L 188.046875 90.617188 L 186.871094 90.617188 L 186.871094 85.148438 L 187.992188 85.148438 C 187.992188 85.433594 187.972656 85.90625 187.914063 86.214844 L 187.925781 86.226563 C 188.246094 85.519531 188.90625 85.039063 189.832031 85.039063 C 191.074219 85.039063 191.460938 85.820313 191.460938 86.789063 L 191.460938 90.617188 "/>
<path style=" stroke:none;fill-rule:nonzero;fill:rgb(41.175842%,36.862183%,29.019165%);fill-opacity:1;" d="M 196.425781 86.09375 C 196.125 86.027344 195.839844 85.996094 195.554688 85.996094 C 194.617188 85.996094 193.980469 86.566406 193.980469 88.039063 C 193.980469 89.144531 194.320313 89.757813 195.070313 89.757813 C 195.941406 89.757813 196.425781 88.726563 196.425781 87.789063 Z M 196.480469 90.617188 C 196.480469 90.328125 196.5 89.902344 196.554688 89.59375 L 196.535156 89.59375 C 196.234375 90.265625 195.597656 90.726563 194.75 90.726563 C 193.40625 90.726563 192.738281 89.734375 192.738281 88.152344 C 192.738281 86.269531 193.828125 85.058594 195.597656 85.058594 C 195.863281 85.058594 196.125 85.082031 196.425781 85.105469 L 196.425781 82.582031 L 197.589844 82.582031 L 197.589844 90.617188 "/>
<path style=" stroke:none;fill-rule:nonzero;fill:rgb(41.175842%,36.862183%,29.019165%);fill-opacity:1;" d="M 201.320313 85.90625 C 200.660156 85.90625 200.199219 86.390625 200.101563 87.128906 L 202.421875 87.128906 C 202.445313 86.378906 202.015625 85.90625 201.320313 85.90625 M 203.566406 87.953125 L 200.078125 87.953125 C 200.046875 89.21875 200.605469 89.792969 201.695313 89.792969 C 202.257813 89.792969 202.839844 89.660156 203.292969 89.4375 L 203.402344 90.375 C 202.851563 90.605469 202.179688 90.726563 201.507813 90.726563 C 199.804688 90.726563 198.867188 89.84375 198.867188 87.921875 C 198.867188 86.269531 199.769531 85.039063 201.367188 85.039063 C 202.929688 85.039063 203.601563 86.105469 203.601563 87.402344 C 203.601563 87.554688 203.589844 87.746094 203.566406 87.953125 "/>
<path style=" stroke:none;fill-rule:nonzero;fill:rgb(41.175842%,36.862183%,29.019165%);fill-opacity:1;" d="M 207.726563 86.191406 C 206.640625 85.996094 206.109375 86.753906 206.109375 88.394531 L 206.109375 90.617188 L 204.933594 90.617188 L 204.933594 85.148438 L 206.054688 85.148438 C 206.054688 85.457031 206.023438 85.941406 205.945313 86.359375 L 205.964844 86.359375 C 206.210938 85.621094 206.757813 84.9375 207.785156 85.039063 "/>
<path style=" stroke:none;fill-rule:nonzero;fill:rgb(41.175842%,36.862183%,29.019165%);fill-opacity:1;" d="M 211.238281 90.617188 L 211.238281 83.1875 L 215.15625 83.1875 L 215.15625 84.1875 L 212.4375 84.1875 L 212.4375 86.304688 L 215.023438 86.304688 L 215.023438 87.28125 L 212.4375 87.28125 L 212.4375 89.59375 L 215.15625 89.59375 L 215.15625 90.617188 "/>
<path style=" stroke:none;fill-rule:nonzero;fill:rgb(41.175842%,36.862183%,29.019165%);fill-opacity:1;" d="M 219.980469 86.082031 C 219.691406 86.019531 219.414063 85.984375 219.109375 85.984375 C 218.171875 85.984375 217.535156 86.566406 217.535156 88.042969 C 217.535156 89.144531 217.875 89.757813 218.613281 89.757813 C 219.496094 89.757813 219.980469 88.726563 219.980469 87.765625 Z M 219.980469 93.300781 L 219.980469 90.628906 C 219.980469 90.351563 219.988281 89.957031 220.054688 89.617188 L 220.035156 89.601563 C 219.746094 90.296875 219.097656 90.726563 218.328125 90.726563 C 217.03125 90.726563 216.304688 89.855469 216.304688 88.164063 C 216.304688 86.269531 217.371094 85.058594 219.230469 85.058594 C 219.933594 85.058594 220.574219 85.113281 221.144531 85.214844 L 221.144531 93.300781 "/>
<path style=" stroke:none;fill-rule:nonzero;fill:rgb(41.175842%,36.862183%,29.019165%);fill-opacity:1;" d="M 226.328125 90.617188 C 226.328125 90.332031 226.351563 89.855469 226.40625 89.546875 L 226.394531 89.539063 C 226.074219 90.242188 225.414063 90.726563 224.492188 90.726563 C 223.25 90.726563 222.863281 89.945313 222.863281 88.976563 L 222.863281 85.148438 L 224.027344 85.148438 L 224.027344 88.667969 C 224.027344 89.351563 224.214844 89.746094 224.84375 89.746094 C 225.667969 89.746094 226.273438 88.878906 226.273438 87.789063 L 226.273438 85.148438 L 227.453125 85.148438 L 227.453125 90.617188 "/>
<path style=" stroke:none;fill-rule:nonzero;fill:rgb(41.175842%,36.862183%,29.019165%);fill-opacity:1;" d="M 232.007813 88.140625 C 230.292969 88.140625 229.917969 88.660156 229.917969 89.132813 C 229.917969 89.535156 230.203125 89.800781 230.667969 89.800781 C 231.46875 89.800781 232.007813 89.03125 232.007813 88.25 Z M 232.085938 90.617188 C 232.085938 90.265625 232.097656 89.902344 232.140625 89.605469 L 232.128906 89.59375 C 231.867188 90.242188 231.183594 90.726563 230.316406 90.726563 C 229.378906 90.726563 228.785156 90.199219 228.785156 89.328125 C 228.785156 88.074219 230.039063 87.347656 232.007813 87.347656 L 232.007813 86.996094 C 232.007813 86.316406 231.722656 85.960938 230.863281 85.960938 C 230.359375 85.960938 229.699219 86.117188 229.238281 86.402344 L 229.125 85.402344 C 229.664063 85.191406 230.347656 85.035156 231.050781 85.035156 C 232.722656 85.035156 233.1875 85.765625 233.1875 86.886719 L 233.1875 89.121094 C 233.1875 89.59375 233.199219 90.15625 233.21875 90.617188 "/>
<path style=" stroke:none;fill-rule:nonzero;fill:rgb(41.175842%,36.862183%,29.019165%);fill-opacity:1;" d="M 234.925781 90.617188 L 236.105469 90.617188 L 236.105469 82.582031 L 234.925781 82.582031 Z M 234.925781 90.617188 "/>
<path style=" stroke:none;fill-rule:nonzero;fill:rgb(41.175842%,36.862183%,29.019165%);fill-opacity:1;" d="M 237.820313 85.148438 L 239 85.148438 L 239 90.617188 L 237.820313 90.617188 Z M 238.414063 84.332031 C 237.996094 84.332031 237.65625 84 237.65625 83.597656 C 237.65625 83.1875 237.996094 82.859375 238.414063 82.859375 C 238.824219 82.859375 239.164063 83.179688 239.164063 83.597656 C 239.164063 84 238.824219 84.332031 238.414063 84.332031 "/>
<path style=" stroke:none;fill-rule:nonzero;fill:rgb(41.175842%,36.862183%,29.019165%);fill-opacity:1;" d="M 242.464844 90.714844 C 241.300781 90.714844 240.945313 90.265625 240.945313 89.042969 L 240.945313 86.0625 L 239.902344 86.0625 L 239.902344 85.148438 L 240.945313 85.148438 L 240.945313 83.40625 L 242.113281 83.089844 L 242.113281 85.148438 L 243.554688 85.148438 L 243.554688 86.0625 L 242.125 86.0625 L 242.125 88.679688 C 242.125 89.492188 242.289063 89.714844 242.839844 89.714844 C 243.082031 89.714844 243.347656 89.679688 243.554688 89.625 L 243.554688 90.59375 C 243.238281 90.660156 242.828125 90.714844 242.464844 90.714844 "/>
<g clip-path="url(#clip1)" clip-rule="nonzero">
<path style=" stroke:none;fill-rule:nonzero;fill:rgb(41.175842%,36.862183%,29.019165%);fill-opacity:1;" d="M 247.023438 91.144531 C 246.382813 92.851563 245.84375 93.378906 244.613281 93.378906 C 244.394531 93.378906 244.09375 93.347656 243.875 93.300781 L 243.964844 92.269531 C 244.203125 92.355469 244.425781 92.386719 244.679688 92.386719 C 245.230469 92.386719 245.535156 92.132813 245.878906 91.199219 L 246.097656 90.617188 L 244.050781 85.148438 L 245.371094 85.148438 L 246.261719 87.644531 C 246.4375 88.128906 246.570313 88.613281 246.691406 89.074219 L 246.703125 89.074219 C 246.8125 88.636719 247.046875 87.933594 247.242188 87.371094 L 248.023438 85.148438 L 249.289063 85.148438 "/>
</g>
<path style=" stroke:none;fill-rule:nonzero;fill:rgb(41.175842%,36.862183%,29.019165%);fill-opacity:1;" d="M 90.832031 101.347656 C 89.117188 101.347656 88.742188 101.867188 88.742188 102.335938 C 88.742188 102.746094 89.027344 103.011719 89.488281 103.011719 C 90.292969 103.011719 90.832031 102.242188 90.832031 101.457031 Z M 90.910156 103.824219 C 90.910156 103.472656 90.917969 103.109375 90.964844 102.8125 L 90.953125 102.800781 C 90.6875 103.453125 90.007813 103.9375 89.136719 103.9375 C 88.203125 103.9375 87.609375 103.40625 87.609375 102.535156 C 87.609375 101.285156 88.863281 100.558594 90.832031 100.558594 L 90.832031 100.203125 C 90.832031 99.523438 90.546875 99.167969 89.6875 99.167969 C 89.183594 99.167969 88.519531 99.324219 88.058594 99.609375 L 87.949219 98.609375 C 88.488281 98.402344 89.167969 98.246094 89.875 98.246094 C 91.546875 98.246094 92.007813 98.972656 92.007813 100.09375 L 92.007813 102.328125 C 92.007813 102.800781 92.019531 103.363281 92.042969 103.824219 "/>
<path style=" stroke:none;fill-rule:nonzero;fill:rgb(41.175842%,36.862183%,29.019165%);fill-opacity:1;" d="M 97.171875 103.824219 L 97.171875 100.304688 C 97.171875 99.621094 96.984375 99.222656 96.359375 99.222656 C 95.53125 99.222656 94.925781 100.09375 94.925781 101.183594 L 94.925781 103.824219 L 93.75 103.824219 L 93.75 98.355469 L 94.871094 98.355469 C 94.871094 98.640625 94.851563 99.117188 94.792969 99.421875 L 94.804688 99.433594 C 95.125 98.730469 95.785156 98.246094 96.710938 98.246094 C 97.953125 98.246094 98.339844 99.027344 98.339844 99.996094 L 98.339844 103.824219 "/>
<path style=" stroke:none;fill-rule:nonzero;fill:rgb(41.175842%,36.862183%,29.019165%);fill-opacity:1;" d="M 103.304688 99.304688 C 103.007813 99.234375 102.71875 99.203125 102.433594 99.203125 C 101.496094 99.203125 100.859375 99.777344 100.859375 101.25 C 100.859375 102.351563 101.199219 102.96875 101.949219 102.96875 C 102.820313 102.96875 103.304688 101.933594 103.304688 100.996094 Z M 103.359375 103.824219 C 103.359375 103.539063 103.378906 103.109375 103.433594 102.800781 L 103.414063 102.800781 C 103.117188 103.472656 102.476563 103.9375 101.628906 103.9375 C 100.289063 103.9375 99.617188 102.945313 99.617188 101.359375 C 99.617188 99.480469 100.707031 98.269531 102.476563 98.269531 C 102.742188 98.269531 103.007813 98.289063 103.304688 98.3125 L 103.304688 95.789063 L 104.46875 95.789063 L 104.46875 103.824219 "/>
<path style=" stroke:none;fill-rule:nonzero;fill:rgb(41.175842%,36.862183%,29.019165%);fill-opacity:1;" d="M 110.433594 103.925781 C 109.265625 103.925781 108.914063 103.472656 108.914063 102.253906 L 108.914063 99.269531 L 107.867188 99.269531 L 107.867188 98.355469 L 108.914063 98.355469 L 108.914063 96.617188 L 110.078125 96.296875 L 110.078125 98.355469 L 111.523438 98.355469 L 111.523438 99.269531 L 110.09375 99.269531 L 110.09375 101.890625 C 110.09375 102.703125 110.257813 102.921875 110.808594 102.921875 C 111.050781 102.921875 111.3125 102.890625 111.523438 102.835938 L 111.523438 103.804688 C 111.203125 103.867188 110.796875 103.925781 110.433594 103.925781 "/>
<path style=" stroke:none;fill-rule:nonzero;fill:rgb(41.175842%,36.862183%,29.019165%);fill-opacity:1;" d="M 116.210938 103.824219 L 116.210938 100.304688 C 116.210938 99.621094 116.023438 99.222656 115.398438 99.222656 C 114.570313 99.222656 113.964844 100.09375 113.964844 101.195313 L 113.964844 103.824219 L 112.789063 103.824219 L 112.789063 95.792969 L 113.964844 95.792969 L 113.964844 98.265625 C 113.964844 98.609375 113.945313 99.074219 113.867188 99.367188 L 113.890625 99.378906 C 114.210938 98.695313 114.855469 98.246094 115.75 98.246094 C 116.992188 98.246094 117.378906 99.027344 117.378906 99.996094 L 117.378906 103.824219 "/>
<path style=" stroke:none;fill-rule:nonzero;fill:rgb(41.175842%,36.862183%,29.019165%);fill-opacity:1;" d="M 121.109375 99.117188 C 120.449219 99.117188 119.988281 99.597656 119.886719 100.335938 L 122.210938 100.335938 C 122.234375 99.589844 121.804688 99.117188 121.109375 99.117188 M 123.355469 101.160156 L 119.867188 101.160156 C 119.832031 102.429688 120.394531 103 121.484375 103 C 122.046875 103 122.628906 102.867188 123.078125 102.644531 L 123.191406 103.582031 C 122.640625 103.8125 121.96875 103.933594 121.296875 103.933594 C 119.589844 103.933594 118.65625 103.054688 118.65625 101.128906 C 118.65625 99.476563 119.558594 98.246094 121.152344 98.246094 C 122.71875 98.246094 123.386719 99.3125 123.386719 100.613281 C 123.386719 100.765625 123.378906 100.953125 123.355469 101.160156 "/>
<path style=" stroke:none;fill-rule:nonzero;fill:rgb(41.175842%,36.862183%,29.019165%);fill-opacity:1;" d="M 127.121094 103.824219 L 127.121094 96.394531 L 131.039063 96.394531 L 131.039063 97.398438 L 128.320313 97.398438 L 128.320313 99.511719 L 130.90625 99.511719 L 130.90625 100.492188 L 128.320313 100.492188 L 128.320313 102.800781 L 131.039063 102.800781 L 131.039063 103.824219 "/>
<path style=" stroke:none;fill-rule:nonzero;fill:rgb(41.175842%,36.862183%,29.019165%);fill-opacity:1;" d="M 139.324219 103.824219 L 139.324219 100.335938 C 139.324219 99.65625 139.160156 99.222656 138.53125 99.222656 C 137.828125 99.222656 137.125 100.007813 137.125 101.207031 L 137.125 103.824219 L 135.96875 103.824219 L 135.96875 100.324219 C 135.96875 99.710938 135.835938 99.222656 135.175781 99.222656 C 134.429688 99.222656 133.777344 100.058594 133.777344 101.207031 L 133.777344 103.824219 L 132.601563 103.824219 L 132.601563 98.355469 L 133.722656 98.355469 C 133.722656 98.640625 133.703125 99.101563 133.644531 99.421875 L 133.667969 99.433594 C 133.988281 98.707031 134.671875 98.246094 135.515625 98.246094 C 136.597656 98.246094 136.949219 98.9375 137.035156 99.421875 C 137.265625 98.894531 137.871094 98.246094 138.863281 98.246094 C 139.90625 98.246094 140.492188 98.804688 140.492188 100.050781 L 140.492188 103.824219 "/>
<g clip-path="url(#clip2)" clip-rule="nonzero">
<path style=" stroke:none;fill-rule:nonzero;fill:rgb(41.175842%,36.862183%,29.019165%);fill-opacity:1;" d="M 144.742188 99.214844 C 143.859375 99.214844 143.386719 100.25 143.386719 101.183594 L 143.386719 102.867188 C 143.640625 102.945313 143.914063 102.976563 144.246094 102.976563 C 145.179688 102.976563 145.820313 102.40625 145.820313 100.929688 C 145.820313 99.828125 145.476563 99.214844 144.742188 99.214844 M 144.214844 103.902344 C 143.90625 103.902344 143.671875 103.890625 143.386719 103.835938 L 143.386719 106.511719 L 142.210938 106.511719 L 142.210938 98.355469 L 143.320313 98.355469 C 143.320313 98.640625 143.308594 99.082031 143.257813 99.378906 L 143.277344 99.378906 C 143.585938 98.6875 144.214844 98.246094 145.050781 98.246094 C 146.347656 98.246094 147.0625 99.171875 147.0625 100.820313 C 147.0625 102.746094 146.039063 103.902344 144.214844 103.902344 "/>
</g>
<path style=" stroke:none;fill-rule:nonzero;fill:rgb(41.175842%,36.862183%,29.019165%);fill-opacity:1;" d="M 150.519531 99.234375 C 149.804688 99.234375 149.109375 99.785156 149.109375 101.042969 C 149.109375 102.273438 149.59375 102.921875 150.507813 102.921875 C 151.269531 102.921875 151.90625 102.328125 151.90625 101.0625 C 151.90625 99.894531 151.453125 99.234375 150.519531 99.234375 M 150.398438 103.9375 C 148.878906 103.9375 147.890625 103.085938 147.890625 101.160156 C 147.890625 99.511719 148.957031 98.246094 150.621094 98.246094 C 152.085938 98.246094 153.117188 99.0625 153.117188 100.988281 C 153.117188 102.671875 152.015625 103.9375 150.398438 103.9375 "/>
<path style=" stroke:none;fill-rule:nonzero;fill:rgb(41.175842%,36.862183%,29.019165%);fill-opacity:1;" d="M 160.355469 103.824219 L 159.058594 103.824219 L 158.113281 100.964844 C 157.992188 100.597656 157.890625 100.226563 157.792969 99.808594 L 157.78125 99.808594 C 157.671875 100.292969 157.550781 100.722656 157.40625 101.183594 L 156.585938 103.824219 L 155.339844 103.824219 L 153.65625 98.355469 L 154.941406 98.355469 L 155.667969 100.898438 C 155.8125 101.414063 155.964844 101.929688 156.078125 102.429688 L 156.089844 102.429688 C 156.199219 101.886719 156.328125 101.402344 156.472656 100.929688 L 157.289063 98.355469 L 158.476563 98.355469 L 159.300781 100.886719 C 159.507813 101.546875 159.621094 101.953125 159.730469 102.429688 L 159.742188 102.429688 C 159.851563 101.921875 159.960938 101.492188 160.128906 100.941406 L 160.886719 98.355469 L 162.105469 98.355469 "/>
<path style=" stroke:none;fill-rule:nonzero;fill:rgb(41.175842%,36.862183%,29.019165%);fill-opacity:1;" d="M 165.046875 99.117188 C 164.386719 99.117188 163.925781 99.597656 163.824219 100.335938 L 166.148438 100.335938 C 166.167969 99.589844 165.738281 99.117188 165.046875 99.117188 M 167.289063 101.160156 L 163.804688 101.160156 C 163.769531 102.429688 164.332031 103 165.417969 103 C 165.980469 103 166.566406 102.867188 167.015625 102.644531 L 167.125 103.582031 C 166.574219 103.8125 165.90625 103.933594 165.234375 103.933594 C 163.527344 103.933594 162.59375 103.054688 162.59375 101.128906 C 162.59375 99.476563 163.496094 98.246094 165.089844 98.246094 C 166.652344 98.246094 167.324219 99.3125 167.324219 100.613281 C 167.324219 100.765625 167.3125 100.953125 167.289063 101.160156 "/>
<path style=" stroke:none;fill-rule:nonzero;fill:rgb(41.175842%,36.862183%,29.019165%);fill-opacity:1;" d="M 171.453125 99.402344 C 170.363281 99.203125 169.835938 99.960938 169.835938 101.601563 L 169.835938 103.824219 L 168.65625 103.824219 L 168.65625 98.355469 L 169.777344 98.355469 C 169.777344 98.664063 169.746094 99.148438 169.667969 99.566406 L 169.691406 99.566406 C 169.933594 98.828125 170.484375 98.148438 171.507813 98.246094 "/>
<path style=" stroke:none;fill-rule:nonzero;fill:rgb(41.175842%,36.862183%,29.019165%);fill-opacity:1;" d="M 179.289063 103.824219 L 179.289063 100.335938 C 179.289063 99.65625 179.121094 99.222656 178.496094 99.222656 C 177.792969 99.222656 177.085938 100.007813 177.085938 101.207031 L 177.085938 103.824219 L 175.933594 103.824219 L 175.933594 100.324219 C 175.933594 99.710938 175.800781 99.222656 175.140625 99.222656 C 174.390625 99.222656 173.742188 100.058594 173.742188 101.207031 L 173.742188 103.824219 L 172.5625 103.824219 L 172.5625 98.355469 L 173.6875 98.355469 C 173.6875 98.640625 173.664063 99.101563 173.609375 99.421875 L 173.632813 99.433594 C 173.949219 98.707031 174.632813 98.246094 175.480469 98.246094 C 176.558594 98.246094 176.910156 98.9375 177 99.421875 C 177.230469 98.894531 177.835938 98.246094 178.824219 98.246094 C 179.871094 98.246094 180.453125 98.804688 180.453125 100.050781 L 180.453125 103.824219 "/>
<path style=" stroke:none;fill-rule:nonzero;fill:rgb(41.175842%,36.862183%,29.019165%);fill-opacity:1;" d="M 184.1875 99.117188 C 183.527344 99.117188 183.066406 99.597656 182.964844 100.335938 L 185.289063 100.335938 C 185.308594 99.589844 184.878906 99.117188 184.1875 99.117188 M 186.433594 101.160156 L 182.945313 101.160156 C 182.910156 102.429688 183.472656 103 184.5625 103 C 185.121094 103 185.707031 102.867188 186.15625 102.644531 L 186.265625 103.582031 C 185.714844 103.8125 185.046875 103.933594 184.375 103.933594 C 182.667969 103.933594 181.734375 103.054688 181.734375 101.128906 C 181.734375 99.476563 182.636719 98.246094 184.230469 98.246094 C 185.792969 98.246094 186.464844 99.3125 186.464844 100.613281 C 186.464844 100.765625 186.453125 100.953125 186.433594 101.160156 "/>
<path style=" stroke:none;fill-rule:nonzero;fill:rgb(41.175842%,36.862183%,29.019165%);fill-opacity:1;" d="M 191.21875 103.824219 L 191.21875 100.304688 C 191.21875 99.621094 191.03125 99.222656 190.40625 99.222656 C 189.578125 99.222656 188.976563 100.09375 188.976563 101.183594 L 188.976563 103.824219 L 187.796875 103.824219 L 187.796875 98.355469 L 188.921875 98.355469 C 188.921875 98.640625 188.898438 99.117188 188.84375 99.421875 L 188.855469 99.433594 C 189.171875 98.730469 189.832031 98.246094 190.757813 98.246094 C 192 98.246094 192.386719 99.027344 192.386719 99.996094 L 192.386719 103.824219 "/>
<path style=" stroke:none;fill-rule:nonzero;fill:rgb(41.175842%,36.862183%,29.019165%);fill-opacity:1;" d="M 195.765625 103.925781 C 194.597656 103.925781 194.246094 103.472656 194.246094 102.253906 L 194.246094 99.269531 L 193.203125 99.269531 L 193.203125 98.355469 L 194.246094 98.355469 L 194.246094 96.617188 L 195.414063 96.296875 L 195.414063 98.355469 L 196.855469 98.355469 L 196.855469 99.269531 L 195.425781 99.269531 L 195.425781 101.890625 C 195.425781 102.703125 195.589844 102.921875 196.140625 102.921875 C 196.382813 102.921875 196.644531 102.890625 196.855469 102.835938 L 196.855469 103.804688 C 196.535156 103.867188 196.128906 103.925781 195.765625 103.925781 "/>
<path style=" stroke:none;fill-rule:nonzero;fill:rgb(41.175842%,36.862183%,29.019165%);fill-opacity:1;" d="M 202.851563 99.234375 C 202.136719 99.234375 201.445313 99.785156 201.445313 101.042969 C 201.445313 102.273438 201.929688 102.921875 202.839844 102.921875 C 203.601563 102.921875 204.238281 102.328125 204.238281 101.0625 C 204.238281 99.894531 203.789063 99.234375 202.851563 99.234375 M 202.730469 103.9375 C 201.214844 103.9375 200.222656 103.085938 200.222656 101.160156 C 200.222656 99.511719 201.289063 98.246094 202.953125 98.246094 C 204.414063 98.246094 205.449219 99.0625 205.449219 100.988281 C 205.449219 102.671875 204.347656 103.9375 202.730469 103.9375 "/>
<path style=" stroke:none;fill-rule:nonzero;fill:rgb(41.175842%,36.862183%,29.019165%);fill-opacity:1;" d="M 209.972656 96.78125 C 209.730469 96.707031 209.46875 96.671875 209.226563 96.671875 C 208.519531 96.671875 208.203125 97.054688 208.203125 97.917969 L 208.203125 98.355469 L 209.621094 98.355469 L 209.621094 99.269531 L 208.203125 99.269531 L 208.203125 103.824219 L 207.035156 103.824219 L 207.035156 99.269531 L 205.988281 99.269531 L 205.988281 98.355469 L 207.035156 98.355469 L 207.035156 97.9375 C 207.035156 96.441406 207.75 95.714844 209.171875 95.714844 C 209.476563 95.714844 209.777344 95.75 210.0625 95.816406 "/>
<path style=" stroke:none;fill-rule:nonzero;fill:rgb(41.175842%,36.862183%,29.019165%);fill-opacity:1;" d="M 219.976563 103.824219 L 218.503906 103.824219 L 217.238281 99.234375 C 217.105469 98.785156 217.027344 98.3125 216.949219 97.839844 L 216.9375 97.839844 C 216.882813 98.300781 216.796875 98.75 216.675781 99.214844 L 215.421875 103.824219 L 214.011719 103.824219 L 212.085938 96.394531 L 213.363281 96.394531 L 214.507813 100.910156 C 214.640625 101.390625 214.726563 101.878906 214.792969 102.371094 L 214.804688 102.371094 C 214.882813 101.886719 214.96875 101.414063 215.101563 100.964844 L 216.367188 96.394531 L 217.675781 96.394531 L 218.976563 100.972656 C 219.085938 101.371094 219.195313 101.867188 219.273438 102.339844 L 219.285156 102.339844 C 219.359375 101.878906 219.4375 101.449219 219.546875 101.042969 L 220.703125 96.394531 L 221.902344 96.394531 "/>
<path style=" stroke:none;fill-rule:nonzero;fill:rgb(41.175842%,36.862183%,29.019165%);fill-opacity:1;" d="M 224.800781 99.234375 C 224.085938 99.234375 223.390625 99.785156 223.390625 101.042969 C 223.390625 102.273438 223.875 102.921875 224.789063 102.921875 C 225.546875 102.921875 226.1875 102.328125 226.1875 101.0625 C 226.1875 99.894531 225.734375 99.234375 224.800781 99.234375 M 224.675781 103.9375 C 223.160156 103.9375 222.167969 103.085938 222.167969 101.160156 C 222.167969 99.511719 223.238281 98.246094 224.898438 98.246094 C 226.363281 98.246094 227.394531 99.0625 227.394531 100.988281 C 227.394531 102.671875 226.296875 103.9375 224.675781 103.9375 "/>
<path style=" stroke:none;fill-rule:nonzero;fill:rgb(41.175842%,36.862183%,29.019165%);fill-opacity:1;" d="M 235.398438 103.824219 L 235.398438 100.335938 C 235.398438 99.65625 235.230469 99.222656 234.605469 99.222656 C 233.902344 99.222656 233.195313 100.007813 233.195313 101.207031 L 233.195313 103.824219 L 232.039063 103.824219 L 232.039063 100.324219 C 232.039063 99.710938 231.910156 99.222656 231.25 99.222656 C 230.503906 99.222656 229.851563 100.058594 229.851563 101.207031 L 229.851563 103.824219 L 228.671875 103.824219 L 228.671875 98.355469 L 229.796875 98.355469 C 229.796875 98.640625 229.773438 99.101563 229.71875 99.421875 L 229.742188 99.433594 C 230.0625 98.707031 230.742188 98.246094 231.589844 98.246094 C 232.667969 98.246094 233.019531 98.9375 233.109375 99.421875 C 233.339844 98.894531 233.945313 98.246094 234.9375 98.246094 C 235.980469 98.246094 236.5625 98.804688 236.5625 100.050781 L 236.5625 103.824219 "/>
<path style=" stroke:none;fill-rule:nonzero;fill:rgb(41.175842%,36.862183%,29.019165%);fill-opacity:1;" d="M 240.296875 99.117188 C 239.636719 99.117188 239.175781 99.597656 239.074219 100.335938 L 241.398438 100.335938 C 241.417969 99.589844 240.988281 99.117188 240.296875 99.117188 M 242.539063 101.160156 L 239.054688 101.160156 C 239.019531 102.429688 239.582031 103 240.671875 103 C 241.234375 103 241.816406 102.867188 242.265625 102.644531 L 242.375 103.582031 C 241.824219 103.8125 241.15625 103.933594 240.484375 103.933594 C 238.777344 103.933594 237.84375 103.054688 237.84375 101.128906 C 237.84375 99.476563 238.746094 98.246094 240.339844 98.246094 C 241.902344 98.246094 242.574219 99.3125 242.574219 100.613281 C 242.574219 100.765625 242.5625 100.953125 242.539063 101.160156 "/>
<path style=" stroke:none;fill-rule:nonzero;fill:rgb(41.175842%,36.862183%,29.019165%);fill-opacity:1;" d="M 247.328125 103.824219 L 247.328125 100.304688 C 247.328125 99.621094 247.140625 99.222656 246.515625 99.222656 C 245.691406 99.222656 245.085938 100.09375 245.085938 101.183594 L 245.085938 103.824219 L 243.90625 103.824219 L 243.90625 98.355469 L 245.03125 98.355469 C 245.03125 98.640625 245.007813 99.117188 244.953125 99.421875 L 244.964844 99.433594 C 245.28125 98.730469 245.941406 98.246094 246.867188 98.246094 C 248.109375 98.246094 248.496094 99.027344 248.496094 99.996094 L 248.496094 103.824219 "/>
<path style=" stroke:none;fill-rule:nonzero;fill:rgb(0%,61.567688%,86.273193%);fill-opacity:1;" d="M 222.984375 9.964844 C 227.203125 9.78125 231.203125 9.207031 234.828125 8.328125 L 234.828125 0.0585938 L 222.984375 0.0585938 "/>
<g clip-path="url(#clip3)" clip-rule="nonzero">
<path style=" stroke:none;fill-rule:nonzero;fill:rgb(0%,61.567688%,86.273193%);fill-opacity:1;" d="M 246.828125 9.4375 C 244.738281 10.496094 242.414063 11.410156 239.945313 12.195313 L 239.945313 21.339844 C 243.851563 18.46875 247.105469 14.773438 249.480469 10.519531 L 249.480469 7.925781 C 248.636719 8.453125 247.757813 8.964844 246.828125 9.4375 "/>
</g>
<path style=" stroke:none;fill-rule:nonzero;fill:rgb(0%,61.567688%,86.273193%);fill-opacity:1;" d="M 234.835938 24.453125 C 234.835938 24.441406 234.828125 24.429688 234.828125 24.417969 L 234.828125 13.574219 C 231.132813 14.386719 227.148438 14.886719 222.984375 15.0625 L 222.984375 27.785156 C 227.203125 27.394531 231.203125 26.242188 234.835938 24.453125 "/>
<g clip-path="url(#clip4)" clip-rule="nonzero">
<path style=" stroke:none;fill-rule:nonzero;fill:rgb(0%,61.567688%,86.273193%);fill-opacity:1;" d="M 239.945313 0.0585938 L 239.945313 6.804688 C 243.875 5.398438 247.148438 3.625 249.480469 1.671875 L 249.480469 0.0585938 "/>
</g>
<path style=" stroke:none;fill-rule:nonzero;fill:rgb(34.960938%,75.004578%,91.072083%);fill-opacity:1;" d="M 216.8125 0.0585938 L 204.441406 0.0585938 L 204.441406 8.207031 C 208.207031 9.148438 212.394531 9.761719 216.8125 9.953125 "/>
<path style=" stroke:none;fill-rule:nonzero;fill:rgb(34.960938%,75.004578%,91.072083%);fill-opacity:1;" d="M 199.324219 6.628906 L 199.324219 0.0585938 L 190.34375 0.0585938 L 190.34375 1.671875 C 191.691406 2.808594 193.359375 3.898438 195.289063 4.878906 C 196.53125 5.511719 197.882813 6.09375 199.324219 6.628906 "/>
<path style=" stroke:none;fill-rule:nonzero;fill:rgb(34.960938%,75.004578%,91.072083%);fill-opacity:1;" d="M 216.8125 15.050781 C 212.457031 14.859375 208.289063 14.328125 204.441406 13.453125 L 204.441406 24.203125 C 208.210938 26.144531 212.390625 27.382813 216.8125 27.789063 "/>
<path style=" stroke:none;fill-rule:nonzero;fill:rgb(34.960938%,75.004578%,91.072083%);fill-opacity:1;" d="M 199.324219 20.960938 L 199.324219 12.046875 C 195.964844 10.945313 192.945313 9.554688 190.34375 7.921875 L 190.34375 10.578125 C 192.609375 14.625 195.671875 18.15625 199.324219 20.960938 "/>
<path style=" stroke:none;fill-rule:nonzero;fill:rgb(34.960938%,75.004578%,91.072083%);fill-opacity:1;" d="M 204.386719 60.011719 L 204.386719 54.242188 L 216.8125 54.242188 L 216.8125 48.476563 L 204.382813 48.476563 L 204.382813 42.707031 L 216.8125 42.707031 L 216.8125 32.925781 C 206.246094 32.101563 196.867188 27.0625 190.34375 19.484375 L 190.34375 70.023438 L 216.8125 70.023438 L 216.8125 60.011719 "/>
<g clip-path="url(#clip5)" clip-rule="nonzero">
<path style=" stroke:none;fill-rule:nonzero;fill:rgb(0%,61.567688%,86.273193%);fill-opacity:1;" d="M 222.984375 32.925781 L 222.984375 42.707031 L 234.894531 42.707031 L 234.894531 48.476563 L 222.984375 48.476563 L 222.984375 54.238281 L 234.894531 54.238281 L 234.894531 60.011719 L 222.984375 60.011719 L 222.984375 70.023438 L 249.480469 70.023438 L 249.480469 19.457031 C 242.953125 27.046875 233.566406 32.09375 222.984375 32.925781 "/>
</g>
</g>
</svg>
